<?xml version="1.0" encoding="UTF-8" standalone="no"?>
<!-- Creator: CorelDRAW -->

<svg
   xmlns:dc="http://purl.org/dc/elements/1.1/"
   xmlns:cc="http://creativecommons.org/ns#"
   xmlns:rdf="http://www.w3.org/1999/02/22-rdf-syntax-ns#"
   xmlns:svg="http://www.w3.org/2000/svg"
   xmlns="http://www.w3.org/2000/svg"
   xmlns:sodipodi="http://sodipodi.sourceforge.net/DTD/sodipodi-0.dtd"
   xmlns:inkscape="http://www.inkscape.org/namespaces/inkscape"
   xml:space="preserve"
   width="700mm"
   height="700mm"
   style="clip-rule:evenodd;fill-rule:evenodd;image-rendering:optimizeQuality;shape-rendering:geometricPrecision;text-rendering:geometricPrecision"
   viewBox="0 0 814.67969 814.67979"
   version="1.1"
   id="svg34"
   sodipodi:docname="unicamp-logo.svg"
   inkscape:export-filename="G:\Users\suitedoalex\sites\svg\unicamp-logo-0.png"
   inkscape:export-xdpi="148.63"
   inkscape:export-ydpi="148.63"
   inkscape:version="0.92.4 (5da689c313, 2019-01-14)"><metadata
   id="metadata38"><rdf:RDF><cc:Work
       rdf:about=""><dc:format>image/svg+xml</dc:format><dc:type
         rdf:resource="http://purl.org/dc/dcmitype/StillImage" /><dc:title></dc:title></cc:Work></rdf:RDF></metadata><sodipodi:namedview
   pagecolor="#ffffff"
   bordercolor="#666666"
   borderopacity="1"
   objecttolerance="10"
   gridtolerance="10"
   guidetolerance="10"
   inkscape:pageopacity="0"
   inkscape:pageshadow="2"
   inkscape:window-width="1600"
   inkscape:window-height="837"
   id="namedview36"
   showgrid="false"
   inkscape:zoom="0.18493372"
   inkscape:cx="424.30092"
   inkscape:cy="1610.1359"
   inkscape:window-x="-8"
   inkscape:window-y="-8"
   inkscape:window-maximized="1"
   inkscape:current-layer="svg34" />
 <defs
   id="defs4">
  <style
   type="text/css"
   id="style2">
   <![CDATA[
    .fil0 {fill:#1F1A17}
    .fil1 {fill:#DA251D}
   ]]>
  </style>
 </defs>
 <g
   id="Camada_x0020_1"
   transform="matrix(3.710162,0,0,3.710162,177.64147,149.61003)"
   inkscape:export-xdpi="25.738909"
   inkscape:export-ydpi="25.738909">
  <metadata
   id="CorelCorpID_0Corel-Layer" />
  <g
   id="_90919680">
   <path
   id="_124851560"
   class="fil0"
   d="M 56.7685,45.7277 V 1.2062 c 5.15158,0.118944 10.2834,0.852041 15.2764,2.21919 -0.515228,3.05133 0.792452,6.10255 3.32867,7.86598 l -14.7414,35.2487 C 59.36406,46.124 58.07616,45.866445 56.76848,45.727716 Z"
   inkscape:connector-curvature="0"
   style="fill:#1f1a17" />
   <path
   id="_124851488"
   class="fil0"
   d="M 52.8816,45.7277 V 1.2656 C 45.86754,1.622198 39.012,3.34606 32.6518,6.33792 l 16.4851,40.1624 c 1.20864,-0.396168 2.45685,-0.65384 3.74474,-0.772667 z"
   inkscape:connector-curvature="0"
   style="fill:#1f1a17" />
   <path
   id="_124851416"
   class="fil0"
   d="M 46.1582,47.6186 29.7525,7.6741 c -6.30086,3.22975 -11.9873,7.58876 -16.7426,12.8394 l 29.5224,29.5224 c 1.1096,-0.931181 2.31823,-1.74354 3.62592,-2.41728 z"
   inkscape:connector-curvature="0"
   style="fill:#1f1a17" />
   <path
   id="_124851344"
   class="fil0"
   d="M 10.9657,22.9313 C 6.62647,28.08288 3.33749,34.0468 1.29659,40.4467 l 36.6951,15.3557 c 0.633939,-1.24833 1.42651,-2.43718 2.33802,-3.50709 l -29.364,-29.364 z"
   inkscape:connector-curvature="0"
   style="fill:#1f1a17" />
   <path
   id="_124851272"
   class="fil0"
   d="M 36.7035,58.7543 0.5237,43.6166 c -0.832255,6.45926 -0.673742,12.9978 0.475425,19.3976 h 34.8524 c 0.118827,-1.44629 0.41607,-2.87292 0.851924,-4.25985 z"
   inkscape:connector-curvature="0"
   style="fill:#1f1a17" />
   <path
   id="_124851200"
   class="fil0"
   d="M 35.8631,66.2129 H 1.9024 C 3.96296,71.56268 6.63791,76.635 9.84776,81.3704 L 36.67546,70.354 c -0.41607,-1.34737 -0.69341,-2.7343 -0.812354,-4.14114 z"
   inkscape:connector-curvature="0"
   style="fill:#1f1a17" />
   <path
   id="_124851128"
   class="fil0"
   d="m 40.3804,76.7181 c -0.951083,-1.10948 -1.76344,-2.31812 -2.41728,-3.62592 l -25.8965,10.6202 c 3.60601,3.58634 7.58864,6.73672 11.8684,9.45124 l 16.4454,-16.4455 z"
   inkscape:connector-curvature="0"
   style="fill:#1f1a17" />
   <path
   id="_124851056"
   class="fil0"
   d="m 60.9707,100.46 c -0.376499,-3.07112 1.03022,-6.06309 3.6457,-7.72737 l -4.10146,-10.1446 c -6.20171,1.92195 -12.9582,0.554798 -17.9116,-3.6457 l -15.851,15.8509 c 10.4815,5.56777 22.5084,7.56886 34.2184,5.66681 z"
   inkscape:connector-curvature="0"
   style="fill:#1f1a17" />
   <path
   id="_124850984"
   class="fil0"
   d="m 63.2818,81.4455 4.12124,10.2239 c 3.19006,-0.534897 6.36022,0.911512 8.06418,3.64582 1.76344,-0.832255 3.50697,-1.70408 5.23084,-2.61548 l -13.6913,-13.7111 c -1.14917,0.970868 -2.39749,1.80301 -3.72496,2.45685 z"
   inkscape:connector-curvature="0"
   style="fill:#1f1a17" />
   <path
   id="_124850912"
   class="fil0"
   d="m 112.551,70.205 c -1.14917,-1.12938 -1.94174,-2.57579 -2.25876,-4.18071 h -36.6357 c -0.317028,3.94294 -1.88226,7.68768 -4.41848,10.6994 l 14.365,14.3649 c 10.4418,-5.78564 20.1506,-12.7997 28.9478,-20.8837 z"
   inkscape:connector-curvature="0"
   style="fill:#1f1a17" />
   <path
   id="_124850840"
   class="fil0"
   d="m 91.8559,14.9474 c 1.72387,1.72375 3.32879,3.54666 4.83455,5.46849 l -29.7205,29.7206 c -1.08981,-0.911396 -2.25876,-1.68406 -3.50709,-2.33802 l 14.7414,-35.2486 c 2.7343,0.554798 5.56765,-0.396284 7.44991,-2.47675 2.17951,1.46619 4.25997,3.1108 6.20171,4.87424 z"
   inkscape:connector-curvature="0"
   style="fill:#1f1a17" />
   <g
   id="g21">
    <ellipse
   id="_124850768"
   class="fil1"
   cx="68.687202"
   cy="99.552002"
   rx="4.7751002"
   ry="4.7948799"
   style="fill:#da251d" />
    <circle
   id="_124850696"
   class="fil1"
   cx="119.027"
   cy="63.834202"
   r="4.7948699"
   style="fill:#da251d" />
    <circle
   id="_124850624"
   class="fil1"
   cx="79.737396"
   cy="4.7948298"
   r="4.7948699"
   style="fill:#da251d" />
   </g>
   <polygon
   id="_124850528"
   class="fil0"
   points="20.0002,138.909 20.0002,126.327 25.3896,126.327 32.7206,135.006 32.7206,126.407 36.4853,126.407 36.4853,138.909 30.7393,138.909 23.6856,130.667 23.6856,138.909 "
   style="fill:#1f1a17" />
   <polygon
   id="_124850456"
   class="fil0"
   points="43.1718,126.228 43.1718,138.909 39.645,138.909 39.645,126.228 "
   style="fill:#1f1a17" />
   <path
   id="_124850384"
   class="fil0"
   d="m 57.2938,134.287 h 3.50709 v 1.68418 c 0,1.74354 -1.50588,3.11069 -3.24953,2.93239 h -7.2914 c -1.82291,0 -3.32867,-1.36715 -3.52687,-3.17016 v -6.34043 c 0,-1.88226 1.64461,-3.36836 3.52687,-3.17016 h 7.2914 c 1.68418,0 3.09102,1.26799 3.26932,2.93239 v 1.70396 h -3.52687 c -0.01978,-0.85192 -0.733097,-1.50588 -1.58502,-1.46619 H 52.0234 c -0.931297,-0.0397 -1.72387,0.67362 -1.76344,1.58514 v 3.17016 c 0.03957,0.9313 0.832139,1.62471 1.76344,1.58514 h 3.68539 c 0.832139,0.0396 1.54545,-0.59449 1.58502,-1.44641 z"
   inkscape:connector-curvature="0"
   style="fill:#1f1a17" />
   <path
   id="_124850312"
   class="fil0"
   d="m 67.9041,136.913 -0.865192,2.0189 h -3.7494 l 5.19138,-12.5461 h 5.76829 l 5.3357,12.5461 h -4.03779 l -0.576795,-2.0189 h -7.0662 z m 5.6241,-3.0284 h -4.32619 l 2.1631,-5.33558 2.1631,5.33558 z"
   inkscape:connector-curvature="0"
   style="fill:#1f1a17" />
   <polygon
   id="_124850240"
   class="fil0"
   points="99.3731,132.057 95.2914,138.853 90.6947,138.853 86.0781,131.661 86.0781,138.853 82.5512,138.853 82.5512,126.172 86.6131,126.172 92.9733,136.059 98.8976,126.172 102.9,126.172 102.9,138.853 99.3731,138.853 "
   style="fill:#1f1a17" />
   <path
   id="_124850168"
   class="fil0"
   d="m 106.143,138.909 v -12.8345 h 11.1039 c 1.7305,0 3.0284,1.4421 3.3168,3.1726 v 3.461 c 0,1.7305 -1.5863,3.3168 -3.3168,3.3168 h -7.35448 v 2.88409 h -3.7494 z m 3.7494,-6.34509 v -3.1726 h 5.62398 c 2.1631,0 2.1631,3.1726 0,3.1726 z"
   inkscape:connector-curvature="0"
   style="fill:#1f1a17" />
   <path
   id="_124850096"
   class="fil0"
   d="m 4.55756,134.077 v -7.92546 H 1.03069 v 9.64932 c 0,1.68418 1.36715,3.03143 3.03155,3.03143 h 9.88709 c 1.68406,0 3.03143,-1.34725 3.03143,-3.03143 v -9.55028 h -3.52687 v 7.82641 c 0,0.87183 -0.713196,1.58514 -1.58502,1.58514 H 6.14271 c -0.871826,0 -1.58514,-0.71331 -1.58514,-1.58514 z"
   inkscape:connector-curvature="0"
   style="fill:#1f1a17" />
   <path
   id="_124850024"
   class="fil0"
   d="m 107.824,41.1055 c -1.78322,-4.2204 -3.74486,-8.36143 -5.88468,-12.4233 -1.08981,-1.92195 -2.23898,-3.80421 -3.44762,-5.64691 l -29.3044,29.3046 c 0.931181,1.12938 1.74354,2.33802 2.39738,3.62592 l 36.2394,-14.8603 z"
   inkscape:connector-curvature="0"
   style="fill:#1f1a17" />
   <path
   id="_124849952"
   class="fil0"
   d="m 109.085,44.0469 c 1.76332,4.57688 3.36824,9.23314 4.7553,13.9489 -1.78334,1.12938 -3.05133,2.95217 -3.50709,5.03264 h -36.6554 c -0.118827,-1.40672 -0.376383,-2.79366 -0.812354,-4.14103 l 36.219604,-14.8405 z"
   inkscape:connector-curvature="0"
   style="fill:#1f1a17" />
  </g>
 </g>
</svg>